<?xml version="1.0" encoding="UTF-8" standalone="no"?>
<svg
   width="256"
   height="256"
   viewBox="0 0 256 256"
   version="1.1"
   id="svg6"
   xml:space="preserve"
   xmlns:xlink="http://www.w3.org/1999/xlink"
   xmlns="http://www.w3.org/2000/svg"
   xmlns:svg="http://www.w3.org/2000/svg"><defs
     id="defs6"><linearGradient
       id="linearGradient129"><stop
         style="stop-color:#f5f5f5;stop-opacity:1;"
         offset="0"
         id="stop129" /><stop
         style="stop-color:#ffffff;stop-opacity:1;"
         offset="1"
         id="stop130" /></linearGradient><clipPath
       clipPathUnits="userSpaceOnUse"
       id="clipPath31"><path
         style="display:inline;fill:url(#linearGradient31);stroke-width:4;stroke-linejoin:round;paint-order:stroke fill markers"
         d="M 36.999997,8 H 165.39018 L 219,61.60982 218.84473,248 H 36.999997 Z"
         id="path31" /></clipPath><linearGradient
       xlink:href="#linearGradient129"
       id="linearGradient31"
       gradientUnits="userSpaceOnUse"
       x1="128"
       y1="219"
       x2="128"
       y2="37" /></defs><!-- Extracted from legacy file icons in images/icons. --><g
     id="g126"
     clip-path="url(#clipPath31)"
     transform="translate(-0.0776345,10.920499)"><g
       stroke="#969696"
       transform="matrix(1.0920078,0,0,1.0920078,-8.9074968,-22.253339)"
       id="g20"><path
         d="m 77.878136,124.47864 h 87.105414 v 78.23473 H 77.878136 Z"
         fill="#e6e6e6"
         stroke-linecap="round"
         stroke-width="4.52431"
         id="path19" /><path
         d="m 67.254237,147.79661 v 64.54237 h 33.627123"
         fill="none"
         stroke-width="4.5"
         id="path20" /></g><g
       fill="#555753"
       transform="matrix(1.0920078,0,0,1.0920078,-211.46568,-29.360643)"
       id="g27"><g
         stroke="#555753"
         stroke-width="4.7"
         id="g25"><path
           d="m 283.41799,185.6249 0.38351,-83.22287"
           id="path21" /><path
           d="m 298.99831,185.6249 0.38352,-83.22287"
           id="path22" /><path
           d="m 314.57862,185.6249 0.38352,-83.22287"
           id="path23" /><path
           d="m 330.15895,185.62489 0.38352,-83.22286"
           id="path24" /><path
           d="m 345.73926,185.62489 0.38352,-83.22286"
           id="path25" /></g><g
         stroke-width="4.327"
         transform="translate(29.051276,-1.835155)"
         id="g26"><rect
           height="45.293995"
           ry="3.4516399"
           stroke="#555753"
           width="82.111496"
           x="244.66336"
           y="123.28403"
           id="rect25" /><path
           d="m 248.029,163.29639 v -32.25446 c 0,-1.91221 1.53943,-3.45164 3.45164,-3.45164 h 58.78343 10.67205"
           stroke="#a1a29f"
           stroke-linecap="round"
           id="path26" /></g></g></g></svg>
